<?xml version="1.0" encoding="UTF-8" standalone="no"?>
<!DOCTYPE svg PUBLIC "-//W3C//DTD SVG 1.1//EN"
 "http://www.w3.org/Graphics/SVG/1.1/DTD/svg11.dtd">
<!-- Generated by graphviz version 2.50.0 (0)
 -->
<!-- Pages: 1 -->
<svg width="356pt" height="72pt"
 viewBox="0.00 0.00 356.00 71.76" xmlns="http://www.w3.org/2000/svg" xmlns:xlink="http://www.w3.org/1999/xlink">
<g id="graph0" class="graph" transform="scale(1 1) rotate(0) translate(4 67.76)">
<polygon fill="white" stroke="transparent" points="-4,4 -4,-67.76 352,-67.76 352,4 -4,4"/>
<!-- G -->
<g id="node1" class="node">
<title>G</title>
<g id="a_node1"><a xlink:title="G (Gestating):&#10;	state for gestating animals">
<path fill="green" stroke="black" d="M12,-10.76C12,-10.76 42,-10.76 42,-10.76 48,-10.76 54,-16.76 54,-22.76 54,-22.76 54,-34.76 54,-34.76 54,-40.76 48,-46.76 42,-46.76 42,-46.76 12,-46.76 12,-46.76 6,-46.76 0,-40.76 0,-34.76 0,-34.76 0,-22.76 0,-22.76 0,-16.76 6,-10.76 12,-10.76"/>
<text text-anchor="middle" x="27" y="-24.96" font-family="Arial" font-size="16.00">G ◷</text>
</a>
</g>
</g>
<!-- NG -->
<g id="node2" class="node">
<title>NG</title>
<g id="a_node2"><a xlink:title="NG (NonGestating):&#10;	state for empty animals">
<path fill="cyan" stroke="black" stroke-width="2" d="M305,-10.76C305,-10.76 336,-10.76 336,-10.76 342,-10.76 348,-16.76 348,-22.76 348,-22.76 348,-34.76 348,-34.76 348,-40.76 342,-46.76 336,-46.76 336,-46.76 305,-46.76 305,-46.76 299,-46.76 293,-40.76 293,-34.76 293,-34.76 293,-22.76 293,-22.76 293,-16.76 299,-10.76 305,-10.76"/>
<text text-anchor="middle" x="320.5" y="-24.96" font-family="Arial" font-size="16.00">NG ◷</text>
</a>
</g>
</g>
<!-- G&#45;&gt;NG -->
<g id="edge1" class="edge">
<title>G&#45;&gt;NG</title>
<path fill="none" stroke="black" stroke-width="1.5" d="M54.25,-38.31C60.03,-40.08 66.16,-41.7 72,-42.76 88.64,-45.79 93.09,-44.31 110,-44.76 175.44,-46.48 198.02,-53.92 266.2,-43.07"/>
<polygon fill="black" stroke="black" stroke-width="1.5" points="283.72,-43.51 292.95,-38.31 282.49,-36.62 283.72,-43.51"/>
<polyline fill="none" stroke="black" stroke-width="1.5" points="283.1,-40.06 278.18,-40.94 "/>
<polygon fill="black" stroke="black" stroke-width="1.5" points="266.36,-43.04 271.57,-38.05 278.18,-40.94 272.97,-45.92 266.36,-43.04"/>
<g id="a_edge1&#45;label"><a xlink:title="amount&#45;all&#45;but: 0">
<text text-anchor="middle" x="173.5" y="-52.56" font-family="Times" font-size="14.00">amount&#45;all&#45;but: 0</text>
</a>
</g>
</g>
<!-- G&#45;&gt;NG -->
<g id="edge2" class="edge">
<title>G&#45;&gt;NG</title>
<g id="a_edge2"><a xlink:title="ESCAPE: is_I">
<path fill="none" stroke="black" stroke-width="1.5" d="M69.23,-26.96C82.27,-26.46 96.73,-26 110,-25.76 166.44,-24.73 180.56,-24.73 237,-25.76 246.17,-25.93 255.91,-26.2 265.36,-26.51"/>
<polyline fill="none" stroke="black" stroke-width="1.5" points="54.21,-27.56 59.21,-27.36 "/>
<polygon fill="none" stroke="black" stroke-width="1.5" points="59.07,-23.86 69.2,-26.96 59.35,-30.85 59.07,-23.86"/>
<polygon fill="black" stroke="black" stroke-width="1.5" points="282.63,-30.66 292.76,-27.54 282.89,-23.67 282.63,-30.66"/>
<polyline fill="none" stroke="black" stroke-width="1.5" points="282.76,-27.16 277.77,-26.98 "/>
<polygon fill="black" stroke="black" stroke-width="1.5" points="265.77,-26.52 271.92,-22.75 277.77,-26.98 271.62,-30.75 265.77,-26.52"/>
</a>
</g>
<g id="a_edge2&#45;label"><a xlink:title="daily_abortion [parameter]:&#10;	daily probability that an infected animal aborts during gestation &#160;&#160;&#160;&#160;&#160;&#160;&#10;	1 &#45; (1 &#45; global_abortion)**(1/gestation_duration)">
<text text-anchor="middle" x="173.5" y="-29.56" font-family="Times" font-size="14.00">proba: daily_abortion</text>
</a>
</g>
</g>
<!-- NG&#45;&gt;G -->
<g id="edge3" class="edge">
<title>NG&#45;&gt;G</title>
<g id="a_edge3"><a xlink:title="COND: is_A">
<path fill="none" stroke="black" stroke-width="1.5" d="M282.91,-16.26C268.75,-12.03 252.29,-7.85 237,-5.76 181.08,1.89 165.92,1.93 110,-5.76 96.31,-7.64 81.69,-11.21 68.65,-14.99"/>
<polyline fill="none" stroke="black" stroke-width="1.5" points="292.76,-19.31 287.99,-17.83 "/>
<polygon fill="black" stroke="black" stroke-width="1.5" points="288.52,-12.76 285.55,-22.31 283.64,-21.72 286.61,-12.17 288.52,-12.76"/>
<polyline fill="none" stroke="black" stroke-width="1.5" points="287.99,-17.83 283.21,-16.35 "/>
<polygon fill="black" stroke="black" stroke-width="1.5" points="62.73,-13.15 54.2,-19.43 64.79,-19.84 62.73,-13.15"/>
<polyline fill="none" stroke="black" stroke-width="1.5" points="63.76,-16.49 68.54,-15.03 "/>
</a>
</g>
<g id="a_edge3&#45;label"><a xlink:title="reproduction [parameter]:&#10;	reproduction rate of the animals &#160;&#160;&#160;&#160;&#160;&#160;&#160;&#160;&#160;&#160;&#160;&#160;&#160;&#160;&#160;&#160;&#160;&#160;&#160;&#160;&#160;&#160;&#160;&#160;&#160;&#160;&#160;&#160;&#160;&#160;&#160;&#160;&#160;&#160;&#160;&#160;&#160;&#160;&#160;&#10;	0.05">
<text text-anchor="middle" x="173.5" y="-9.56" font-family="Times" font-size="14.00">rate: reproduction</text>
</a>
</g>
</g>
</g>
</svg>
