<?xml version="1.0" encoding="UTF-8" standalone="no"?>
<!DOCTYPE svg PUBLIC "-//W3C//DTD SVG 1.1//EN"
 "http://www.w3.org/Graphics/SVG/1.1/DTD/svg11.dtd">
<!-- Generated by graphviz version 2.50.0 (0)
 -->
<!-- Pages: 1 -->
<svg width="278pt" height="61pt"
 viewBox="0.00 0.00 278.00 61.00" xmlns="http://www.w3.org/2000/svg" xmlns:xlink="http://www.w3.org/1999/xlink">
<g id="graph0" class="graph" transform="scale(1 1) rotate(0) translate(4 57)">
<polygon fill="white" stroke="transparent" points="-4,4 -4,-57 274,-57 274,4 -4,4"/>
<!-- J -->
<g id="node1" class="node">
<title>J</title>
<g id="a_node1"><a xlink:title="J (Juvenile):&#10;	juvenile animals">
<path fill="orange" stroke="black" stroke-width="2" d="M12,-0.5C12,-0.5 42,-0.5 42,-0.5 48,-0.5 54,-6.5 54,-12.5 54,-12.5 54,-40.5 54,-40.5 54,-46.5 48,-52.5 42,-52.5 42,-52.5 12,-52.5 12,-52.5 6,-52.5 0,-46.5 0,-40.5 0,-40.5 0,-12.5 0,-12.5 0,-6.5 6,-0.5 12,-0.5"/>
<text text-anchor="middle" x="27" y="-35.7" font-family="Arial" font-size="16.00">J </text>
<polyline fill="none" stroke="black" stroke-width="2" points="0,-26.5 54,-26.5 "/>
<text text-anchor="middle" x="27" y="-9.7" font-family="Arial" font-size="16.00">◆</text>
</a>
</g>
</g>
<!-- A -->
<g id="node2" class="node">
<title>A</title>
<g id="a_node2"><a xlink:title="A (Adult):&#10;	adult animals">
<path fill="brown" stroke="black" d="M228,-0.5C228,-0.5 258,-0.5 258,-0.5 264,-0.5 270,-6.5 270,-12.5 270,-12.5 270,-40.5 270,-40.5 270,-46.5 264,-52.5 258,-52.5 258,-52.5 228,-52.5 228,-52.5 222,-52.5 216,-46.5 216,-40.5 216,-40.5 216,-12.5 216,-12.5 216,-6.5 222,-0.5 228,-0.5"/>
<text text-anchor="middle" x="243" y="-35.7" font-family="Arial" font-size="16.00">A </text>
<polyline fill="none" stroke="black" points="216,-26.5 270,-26.5 "/>
<text text-anchor="middle" x="243" y="-9.7" font-family="Arial" font-size="16.00">◆</text>
</a>
</g>
</g>
<!-- J&#45;&gt;A -->
<g id="edge1" class="edge">
<title>J&#45;&gt;A</title>
<g id="a_edge1"><a xlink:title="COND: GreaterThan(age, adult_age)">
<path fill="none" stroke="black" stroke-width="1.5" d="M64.28,-26.5C102.08,-26.5 161.21,-26.5 200.75,-26.5"/>
<polyline fill="none" stroke="black" stroke-width="1.5" points="54.24,-26.5 59.24,-26.5 "/>
<polygon fill="black" stroke="black" stroke-width="1.5" points="60.24,-31.5 60.24,-21.5 62.24,-21.5 62.24,-31.5 60.24,-31.5"/>
<polyline fill="none" stroke="black" stroke-width="1.5" points="59.24,-26.5 64.24,-26.5 "/>
<polygon fill="black" stroke="black" stroke-width="1.5" points="205.88,-30 215.88,-26.5 205.88,-23 205.88,-30"/>
<polyline fill="none" stroke="black" stroke-width="1.5" points="205.88,-26.5 200.88,-26.5 "/>
</a>
</g>
<g id="a_edge1&#45;label"><a xlink:title="proba: 1">
<text text-anchor="middle" x="135" y="-30.3" font-family="Times" font-size="14.00">proba: 1</text>
</a>
</g>
</g>
</g>
</svg>
